<svg xmlns="http://www.w3.org/2000/svg" viewBox="0 0 1124.06 187.17"><defs><style>.cls-1{fill:#fff;}</style></defs><g id="Layer_2" data-name="Layer 2"><g id="Layer_1-2" data-name="Layer 1"><path class="cls-1" d="M22.27,44.2H23a2.21,2.21,0,0,1,1.12.26,2.29,2.29,0,0,1,.77,1.12l41.1,81,9.15-18L49.21,55.77c-.12-.34.72-1.12,2.5-2.33s3.92-2.5,6.39-3.88a77.34,77.34,0,0,1,7.6-3.72A17.29,17.29,0,0,1,72,44.2h.52l17.61,34,18.48-34h.52a17.17,17.17,0,0,1,6.13,1.64,76.09,76.09,0,0,1,7.59,3.72q3.72,2.07,6.39,3.88c1.79,1.21,2.62,2,2.51,2.33L105.67,109.3l8.64,17.27,42.47-83.4,23.66,11.91L114.31,187.17,90.48,139.52l-24.18,47L0,55.25Z"/><path class="cls-1" d="M275.58,54.56a51,51,0,0,1,19.34,15.72A67.06,67.06,0,0,1,305.8,93.76a117.38,117.38,0,0,1,3.45,29.18H216.53a15.31,15.31,0,0,0,2.5,8.29,26,26,0,0,0,6.39,6.91,35.37,35.37,0,0,0,8.54,4.74,24.72,24.72,0,0,0,9,1.82h65.62v26.41H242.94a50.65,50.65,0,0,1-18.21-3.19,52.56,52.56,0,0,1-15.11-8.81,66.22,66.22,0,0,1-11.92-13A86.72,86.72,0,0,1,188.9,130a15.93,15.93,0,0,1-.78-2c-.29-.86-.55-1.69-.78-2.5s-.46-1.52-.69-2.16a5.56,5.56,0,0,1-.34-1.12V96.52a10.16,10.16,0,0,1,.43-1.47c.29-.86.66-1.84,1.12-2.93s.89-2.19,1.3-3.28a25.77,25.77,0,0,1,1.12-2.68q8.28-18.47,22.19-27.88t34.44-9.41Q263.66,48.87,275.58,54.56ZM237.5,75.89a44.65,44.65,0,0,0-10.27,3.8,27.37,27.37,0,0,0-8.2,6.39,13.38,13.38,0,0,0-3.37,9.06H279q-9-20.55-32.12-20.55A41.24,41.24,0,0,0,237.5,75.89Z"/><path class="cls-1" d="M318,95.66q.09-8.46.17-19.17t.26-22.44q.17-11.74.26-22.45t.17-19.08q.09-8.37.26-12.52h26.42V56.64c.69-.23,1.84-.67,3.45-1.3s3.37-1.29,5.27-2,3.65-1.32,5.27-1.89,2.76-1,3.45-1.21A27.26,27.26,0,0,1,367.27,49a28.74,28.74,0,0,1,3.79-.43c1.27-.06,2.65-.06,4.15,0s3.22.08,5.18.08a65.49,65.49,0,0,1,24.17,4.41A58.83,58.83,0,0,1,424,65.35a56.27,56.27,0,0,1,12.86,18.91,62,62,0,0,1,4.66,24.35q0,20.55-9.75,35.66t-28.93,23c-.69.23-1.78.57-3.28,1s-3.1.89-4.83,1.3-3.4.75-5,1a22.37,22.37,0,0,1-3.62.43h-67q-.18-3.62-.34-12.51t-.35-19q-.18-10.09-.35-19t-.17-12.52Q317.88,104.12,318,95.66Zm51-18.22a38.72,38.72,0,0,0-11.05,4.92,30.4,30.4,0,0,0-8.37,8.12,19.09,19.09,0,0,0-3.37,11.22V145q1.89,0,6.65-.09c3.16,0,6.53-.14,10.1-.25s6.93-.23,10.1-.35,5.38-.17,6.65-.17a42,42,0,0,0,10.27-1.9,45.79,45.79,0,0,0,10.88-4.84,33,33,0,0,0,8.63-7.51A15.9,15.9,0,0,0,413,119.66V99.11a15.34,15.34,0,0,0-3.45-9.84,31.81,31.81,0,0,0-8.46-7.34,42,42,0,0,0-10.71-4.57,39,39,0,0,0-10.18-1.56A43.19,43.19,0,0,0,369,77.44Z"/><path class="cls-1" d="M446.61,124.13c.05-1.21.08-1.87.08-2l1.21-1.37h26.42v14.14q0,.17.78.69t2,1.2c.81.46,1.58.89,2.33,1.29a7,7,0,0,0,2,.78c.69.23,1.81.55,3.37.95l4.74,1.21,4.58,1.12a16.06,16.06,0,0,0,2.85.51h1.21c.92,0,1.92,0,3,.09s2.21.09,3.37.09h6c1.38,0,2.73,0,4.06-.09s2.5-.09,3.54-.09h1.9a28.2,28.2,0,0,0,5-.77q3.63-.78,7.52-1.9a35.86,35.86,0,0,0,7-2.76q3.1-1.64,3.62-3.53c.46-2.07-.54-3.68-3-4.83A41.63,41.63,0,0,0,529.83,126q-6.65-1.12-15.36-2t-18-2.24A162.69,162.69,0,0,1,478.29,118a65.76,65.76,0,0,1-16-6.47A35.2,35.2,0,0,1,451,101.37q-4.32-6.12-4.32-15.26a30,30,0,0,1,2.94-13.62,33.43,33.43,0,0,1,7.77-10.17,42.86,42.86,0,0,1,11.22-7.16,80.25,80.25,0,0,1,13.3-4.57,96.53,96.53,0,0,1,13.81-2.42c4.6-.45,8.92-.69,12.95-.69a109.2,109.2,0,0,1,20.89,2,119.25,119.25,0,0,1,20,5.77,30,30,0,0,1,11.31,7.33,31.64,31.64,0,0,1,6.39,10.18,44.81,44.81,0,0,1,2.76,12.07q.62,6.47.61,12.84H543.91V84.9c0-.11-.26-.4-.78-.86a23,23,0,0,0-2-1.55c-.8-.58-1.61-1.12-2.41-1.64s-1.45-.89-1.9-1.12a30.2,30.2,0,0,0-6.57-2.5,75,75,0,0,0-7.51-1.55q-3.88-.6-7.59-.87t-6.65-.25c-.23,0-.89.06-2,.17s-2.33.23-3.71.34-2.76.26-4.14.44-2.42.31-3.11.42q-1.56.18-5,.78a66.41,66.41,0,0,0-7,1.64A24,24,0,0,0,477.43,81q-2.6,1.65-2.59,3.88,0,3.45,4.14,5.26a47.11,47.11,0,0,0,10.79,2.93q6.64,1.13,15.28,1.9t17.53,2.15q8.89,1.39,17.53,3.63a56.37,56.37,0,0,1,15.28,6.29,34.08,34.08,0,0,1,10.79,10.26q4.14,6.21,4.14,15.52a29.17,29.17,0,0,1-2.93,13.36,32.52,32.52,0,0,1-7.86,10,48,48,0,0,1-11.31,7.16A76.35,76.35,0,0,1,534.93,168a97,97,0,0,1-13.73,2.42,126.52,126.52,0,0,1-12.69.68,128.58,128.58,0,0,1-22.54-2,59.85,59.85,0,0,1-19.85-7.07A41.11,41.11,0,0,1,452,148.44q-5.44-8.53-5.44-21.64Q446.52,125.95,446.61,124.13Z"/><path class="cls-1" d="M605.2,0V46.79h96V75.11h-94.8q0,6.92-.69,16a113.13,113.13,0,0,0,.09,18.22A55.68,55.68,0,0,0,610,126.39,26.31,26.31,0,0,0,621.26,139a12.67,12.67,0,0,1,1.9.95c.92.52,2,1,3.11,1.55s2.24,1,3.28,1.38a7.3,7.3,0,0,0,2.07.61h69.59v27.62H635.42a51.45,51.45,0,0,1-20.55-4.39,63.08,63.08,0,0,1-18.21-11.91,61.06,61.06,0,0,1-12.95-17.24,44.71,44.71,0,0,1-4.93-20.45V0Z"/><path class="cls-1" d="M732.8,47.48v63a16.39,16.39,0,0,0,.52,2.59c.35,1.38.75,2.91,1.21,4.57s1,3.28,1.47,4.84,1,2.73,1.29,3.54a25.29,25.29,0,0,0,5.27,8,27.5,27.5,0,0,0,7.16,5.18,32.83,32.83,0,0,0,8.55,2.85,50.2,50.2,0,0,0,9.24.86q12.6,0,20.12-4.92t12.69-17.18a13.49,13.49,0,0,1,.6-1.47,10.87,10.87,0,0,0,.69-2c.17-.69.35-1.32.52-1.89a6.36,6.36,0,0,0,.26-1v-67h26.42v70.8a5.69,5.69,0,0,1-.18,1.12c-.11.52-.25,1.12-.43,1.81s-.32,1.36-.43,2a14,14,0,0,1-.34,1.47,74.57,74.57,0,0,1-8.55,19.25,59.65,59.65,0,0,1-13,14.59,55.75,55.75,0,0,1-17.1,9.32,63.19,63.19,0,0,1-20.63,3.28,64.8,64.8,0,0,1-22.45-4.05A66.74,66.74,0,0,1,726,155.75a58.13,58.13,0,0,1-14.16-17.44,47.32,47.32,0,0,1-5.44-22.62V47.48Z"/><path class="cls-1" d="M838.82,85.82a58.91,58.91,0,0,1,12.52-19.69,55.51,55.51,0,0,1,19.34-12.86,65.89,65.89,0,0,1,25-4.58,82.42,82.42,0,0,1,18.3,1.9,96.78,96.78,0,0,1,17.61,6V0h26.25V171.11H889.58a46.88,46.88,0,0,1-22-5.26A59.26,59.26,0,0,1,850,152a64.55,64.55,0,0,1-11.57-19.33,61,61,0,0,1-4.14-22A67.05,67.05,0,0,1,838.82,85.82Zm26.76,40.4A27.27,27.27,0,0,0,874,136.49a34.14,34.14,0,0,0,12.26,5.62,84.5,84.5,0,0,0,14.67,2.24q7.68.53,15.54.35t14.94-.18q0-7.08.17-14.85t-.34-15.45A90,90,0,0,0,929,99.63a34.16,34.16,0,0,0-5.53-12.26,26.84,26.84,0,0,0-10.36-8.46q-6.46-3.1-16.49-3.11a39.77,39.77,0,0,0-14.16,2.42,29.41,29.41,0,0,0-10.79,6.91,31.14,31.14,0,0,0-6.82,10.79,38.53,38.53,0,0,0-2.42,13.9Q862.47,119.84,865.58,126.22Z"/><path class="cls-1" d="M967.45,49h25.73V171.11H967.45Z"/><path class="cls-1" d="M1006.13,84.61A58.47,58.47,0,0,1,1038.68,52a67.74,67.74,0,0,1,49.38,0,57,57,0,0,1,19.17,13,58.08,58.08,0,0,1,12.43,19.69,67.85,67.85,0,0,1,4.4,24.69,66.44,66.44,0,0,1-4.49,24.78,56.88,56.88,0,0,1-12.69,19.51,59.33,59.33,0,0,1-19.42,12.86,63.77,63.77,0,0,1-24.69,4.66,62.8,62.8,0,0,1-24.35-4.66,58.24,58.24,0,0,1-32.29-32.37,63.9,63.9,0,0,1-4.66-24.61A65,65,0,0,1,1006.13,84.61Zm25.12,38.85a30.69,30.69,0,0,0,7.34,10.53,32.6,32.6,0,0,0,11,6.65,39.32,39.32,0,0,0,13.72,2.33,38.63,38.63,0,0,0,13.64-2.33,30.31,30.31,0,0,0,10.71-6.74,30.76,30.76,0,0,0,7-10.61,37.18,37.18,0,0,0,2.51-14,38.38,38.38,0,0,0-2.51-14.25,29.22,29.22,0,0,0-7.08-10.62,30.68,30.68,0,0,0-10.88-6.56,41.29,41.29,0,0,0-13.89-2.24h-1.9c-.93,0-1.9,0-2.94.09s-2,.08-2.93.08h-1.9A29.52,29.52,0,0,0,1043,80.46a33.28,33.28,0,0,0-7.76,7.77,35.46,35.46,0,0,0-4.93,9.93,36.65,36.65,0,0,0-1.72,11.14A35.58,35.58,0,0,0,1031.25,123.46Z"/></g></g></svg>